%FSLAX34Y34*%
%MOMM*%
%LNSILK_TOP*%
G71*
G01*
%ADD10C, 2.00*%
%ADD11C, 1.60*%
%ADD12C, 1.60*%
%ADD13C, 1.60*%
%ADD14C, 1.70*%
%ADD15C, 1.00*%
%ADD16C, 1.30*%
%ADD17C, 1.70*%
%ADD18C, 2.05*%
%LPD*%
X143192Y-250824D02*
G54D10*
D03*
X108268Y-250824D02*
G54D10*
D03*
G36*
X89615Y-399575D02*
X109615Y-399575D01*
X109615Y-419575D01*
X89615Y-419575D01*
X89615Y-399575D01*
G37*
G36*
X115015Y-399575D02*
X135015Y-399575D01*
X135015Y-419575D01*
X115015Y-419575D01*
X115015Y-399575D01*
G37*
G36*
X140415Y-399575D02*
X160415Y-399575D01*
X160415Y-419575D01*
X140415Y-419575D01*
X140415Y-399575D01*
G37*
G36*
X165815Y-399575D02*
X185815Y-399575D01*
X185815Y-419575D01*
X165815Y-419575D01*
X165815Y-399575D01*
G37*
G36*
X75725Y-138725D02*
X81575Y-132875D01*
X89875Y-132875D01*
X95725Y-138725D01*
X95725Y-147025D01*
X89875Y-152875D01*
X81575Y-152875D01*
X75725Y-147025D01*
X75725Y-138725D01*
G37*
G36*
X75725Y-164125D02*
X81575Y-158275D01*
X89875Y-158275D01*
X95725Y-164125D01*
X95725Y-172425D01*
X89875Y-178275D01*
X81575Y-178275D01*
X75725Y-172425D01*
X75725Y-164125D01*
G37*
G36*
X75725Y-189525D02*
X81575Y-183675D01*
X89875Y-183675D01*
X95725Y-189525D01*
X95725Y-197825D01*
X89875Y-203675D01*
X81575Y-203675D01*
X75725Y-197825D01*
X75725Y-189525D01*
G37*
G36*
X75725Y-214925D02*
X81575Y-209075D01*
X89875Y-209075D01*
X95725Y-214925D01*
X95725Y-223225D01*
X89875Y-229075D01*
X81575Y-229075D01*
X75725Y-223225D01*
X75725Y-214925D01*
G37*
G36*
X151925Y-138725D02*
X157775Y-132875D01*
X166075Y-132875D01*
X171925Y-138725D01*
X171925Y-147025D01*
X166075Y-152875D01*
X157775Y-152875D01*
X151925Y-147025D01*
X151925Y-138725D01*
G37*
G36*
X151925Y-164125D02*
X157775Y-158275D01*
X166075Y-158275D01*
X171925Y-164125D01*
X171925Y-172425D01*
X166075Y-178275D01*
X157775Y-178275D01*
X151925Y-172425D01*
X151925Y-164125D01*
G37*
G36*
X151925Y-189525D02*
X157775Y-183675D01*
X166075Y-183675D01*
X171925Y-189525D01*
X171925Y-197825D01*
X166075Y-203675D01*
X157775Y-203675D01*
X151925Y-197825D01*
X151925Y-189525D01*
G37*
G36*
X151925Y-214925D02*
X157775Y-209075D01*
X166075Y-209075D01*
X171925Y-214925D01*
X171925Y-223225D01*
X166075Y-229075D01*
X157775Y-229075D01*
X151925Y-223225D01*
X151925Y-214925D01*
G37*
X43864Y-144876D02*
G54D11*
D03*
X43864Y-170276D02*
G54D11*
D03*
X158529Y-277483D02*
G54D11*
D03*
X93044Y-277483D02*
G54D11*
D03*
X43738Y-259324D02*
G54D11*
D03*
X43738Y-193839D02*
G54D11*
D03*
X43936Y-282536D02*
G54D12*
D03*
X43936Y-307936D02*
G54D12*
D03*
X186613Y-218048D02*
G54D11*
D03*
X186613Y-152564D02*
G54D11*
D03*
X206874Y-206194D02*
G54D11*
D03*
X206874Y-271678D02*
G54D11*
D03*
X76598Y-51198D02*
G54D13*
D03*
X101998Y-51198D02*
G54D13*
D03*
X206874Y-123342D02*
G54D14*
D03*
X206874Y-188826D02*
G54D14*
D03*
X140018Y-111124D02*
G54D10*
D03*
X105092Y-111124D02*
G54D10*
D03*
X31597Y-357189D02*
G54D11*
D03*
X56998Y-357189D02*
G54D11*
D03*
G54D15*
X85725Y-142875D02*
X47625Y-142875D01*
X44450Y-146050D01*
G54D16*
X44450Y-146050D02*
X25400Y-146050D01*
X15875Y-155575D01*
X15875Y-406400D01*
X41275Y-431800D01*
X119459Y-431800D01*
X127000Y-424259D01*
X127000Y-407988D01*
G54D16*
X42862Y-171053D02*
X65088Y-171053D01*
X68659Y-167481D01*
X86122Y-167481D01*
G54D16*
X86916Y-193278D02*
X44053Y-193278D01*
X43259Y-194072D01*
X43259Y-217091D01*
X76597Y-250428D01*
X76597Y-268684D01*
X85725Y-277812D01*
X93662Y-277812D01*
G54D16*
X159544Y-277416D02*
X148034Y-277416D01*
X139303Y-286147D01*
X139303Y-304403D01*
X138906Y-304800D01*
G54D16*
X43259Y-259556D02*
X43259Y-282575D01*
G54D16*
X161131Y-218678D02*
X161131Y-233759D01*
X144066Y-250825D01*
G54D16*
X106759Y-251222D02*
X109141Y-251222D01*
X117078Y-259159D01*
X117078Y-286941D01*
X112712Y-291306D01*
X112712Y-303212D01*
G54D16*
X86122Y-168275D02*
X113109Y-168275D01*
X138906Y-194072D01*
X159941Y-194072D01*
G54D15*
X160338Y-142875D02*
X178594Y-142875D01*
X186134Y-150416D01*
X188120Y-51198D02*
G54D13*
D03*
X213520Y-51198D02*
G54D13*
D03*
G54D15*
X187325Y-51594D02*
X187325Y-34925D01*
X194866Y-27384D01*
X230981Y-27384D01*
X242888Y-39291D01*
X242888Y-250825D01*
X221853Y-271859D01*
X207962Y-271859D01*
G54D15*
X162322Y-193675D02*
X207169Y-193675D01*
X207169Y-188119D01*
X207169Y-206772D01*
X206772Y-207169D01*
G54D15*
X213519Y-51197D02*
X213519Y-117872D01*
X207566Y-123825D01*
X207566Y-162719D01*
X195262Y-175022D01*
X175816Y-175022D01*
X169862Y-169069D01*
X163116Y-169069D01*
G54D15*
X140494Y-110728D02*
X158353Y-110728D01*
X162322Y-114697D01*
X162322Y-141684D01*
G54D15*
X104378Y-111919D02*
X88900Y-111919D01*
X85725Y-115094D01*
X85725Y-140891D01*
X87709Y-142875D01*
X83975Y-386525D02*
G54D17*
D03*
X83975Y-321040D02*
G54D17*
D03*
G54D16*
X31750Y-357584D02*
X17859Y-357584D01*
G54D16*
X83741Y-385762D02*
X83741Y-395288D01*
X98425Y-409972D01*
G54D16*
X83344Y-321866D02*
X83344Y-345678D01*
X71834Y-357188D01*
X57944Y-357188D01*
X57547Y-356791D01*
G54D16*
X112316Y-303609D02*
X111522Y-303609D01*
X104775Y-296862D01*
X66675Y-296862D01*
X55562Y-307975D01*
X16669Y-307975D01*
G54D16*
X101997Y-50800D02*
X124619Y-50800D01*
X141684Y-67866D01*
X141684Y-111522D01*
X158353Y-111522D01*
X161528Y-114697D01*
X161528Y-141684D01*
X139381Y-307927D02*
G54D18*
D03*
X139381Y-333327D02*
G54D18*
D03*
X215581Y-333327D02*
G54D18*
D03*
X215581Y-307927D02*
G54D18*
D03*
G54D16*
X112712Y-304006D02*
X112712Y-325041D01*
X120253Y-332581D01*
X137319Y-332581D01*
X138509Y-333772D01*
G54D16*
X215900Y-334169D02*
X178991Y-334169D01*
X150416Y-362744D01*
X150416Y-407988D01*
X151209Y-408781D01*
G54D16*
X215106Y-307578D02*
X233362Y-307578D01*
X241697Y-315912D01*
X241697Y-357584D01*
X232172Y-367109D01*
X190500Y-367109D01*
X175816Y-381794D01*
G54D16*
X175022Y-410766D02*
X175022Y-382588D01*
X180578Y-377031D01*
G54D15*
X185738Y-218281D02*
X185738Y-230584D01*
X197644Y-242491D01*
X212328Y-242491D01*
X226616Y-228203D01*
X226616Y-175816D01*
X209153Y-158353D01*
M02*
